<?xml version="1.0" encoding="utf-8"?>
<!-- Generator: Adobe Illustrator 19.0.0, SVG Export Plug-In . SVG Version: 6.00 Build 0)  -->
<svg version="1.1" id="Layer_1" xmlns="http://www.w3.org/2000/svg" xmlns:xlink="http://www.w3.org/1999/xlink" x="0px" y="0px"
	 viewBox="0 0 64.2 62.2" style="enable-background:new 0 0 64.2 62.2;" xml:space="preserve">
<style type="text/css">
	.st0{fill:#B1A499;}
	.st1{fill:#FF6A00;}
</style>
<g id="XMLID_1_">
	<g>
		<path id="XMLID_20_" class="st0" d="M59.4,62.1H4.6l-4.5-4.2v-3.8h25.3l2,2h9.2l2-2h25.5v3.8L59.4,62.1z M5.4,60.1h53.2l3.5-3.1
			v-0.9H39.4l-2,2H26.6l-2-2H2.1V57L5.4,60.1z"/>
	</g>
	<g>
		<rect id="XMLID_19_" x="27.1" y="50.1" class="st1" width="2" height="2"/>
	</g>
	<g>
		<rect id="XMLID_18_" x="23.1" y="50.1" class="st0" width="2" height="2"/>
	</g>
	<g>
		<rect id="XMLID_17_" x="31.1" y="50.1" class="st1" width="2" height="2"/>
	</g>
	<g>
		<rect id="XMLID_16_" x="35.1" y="50.1" class="st0" width="2" height="2"/>
	</g>
	<g>
		<rect id="XMLID_15_" x="39.1" y="50.1" class="st1" width="2" height="2"/>
	</g>
	<g>
		<polygon id="XMLID_14_" class="st1" points="33.1,48.1 31.1,48.1 31.1,12.1 54.1,12.1 54.1,14.1 33.1,14.1 		"/>
	</g>
	<g>
		<polygon id="XMLID_13_" class="st1" points="29.1,4.1 27.1,4.1 27.1,0.1 50.1,0.1 50.1,2.1 29.1,2.1 		"/>
	</g>
	<g>
		<rect id="XMLID_12_" x="27.1" y="10.1" class="st1" width="2" height="38"/>
	</g>
	<g>
		<polygon id="XMLID_11_" class="st1" points="41.1,48.1 39.1,48.1 39.1,32.1 45.1,32.1 45.1,34.1 41.1,34.1 		"/>
	</g>
	<g>
		<polygon id="XMLID_10_" class="st0" points="37.1,10.1 35.1,10.1 35.1,8.1 14.1,8.1 14.1,6.1 37.1,6.1 		"/>
	</g>
	<g>
		<rect id="XMLID_9_" x="35.1" y="16.1" class="st0" width="2" height="32"/>
	</g>
	<g>
		<polygon id="XMLID_8_" class="st0" points="25.1,48.1 23.1,48.1 23.1,30.1 12.1,30.1 12.1,28.1 25.1,28.1 		"/>
	</g>
	<g>
		<rect id="XMLID_7_" x="6.1" y="6.1" class="st0" width="2" height="2"/>
	</g>
	<g>
		<rect id="XMLID_6_" x="10.1" y="6.1" class="st0" width="2" height="2"/>
	</g>
	<g>
		<rect id="XMLID_5_" x="52.1" y="0.1" class="st1" width="2" height="2"/>
	</g>
	<g>
		<rect id="XMLID_4_" x="56.1" y="0.1" class="st1" width="2" height="2"/>
	</g>
	<g>
		<path id="XMLID_3_" class="st0" d="M21.1,52.1h-15V24.4c0-2.1,1.6-4.3,3.9-4.3h15.1v2H10c-1.1,0-1.9,1.2-1.9,2.3v25.7h13V52.1z"/>
	</g>
	<g>
		<path id="XMLID_2_" class="st0" d="M58.1,52.1h-15v-2h13V24.4c0-1.2-1.1-2.3-2.1-2.3H39.1v-2H54c2.2,0,4.1,2.1,4.1,4.3V52.1z"/>
	</g>
</g>
</svg>
