<?xml version="1.0" encoding="utf-8"?>
<!-- Generator: Adobe Illustrator 19.0.0, SVG Export Plug-In . SVG Version: 6.00 Build 0)  -->
<svg version="1.1" id="Layer_1" xmlns="http://www.w3.org/2000/svg" xmlns:xlink="http://www.w3.org/1999/xlink" x="0px" y="0px"
	 viewBox="0 0 250.2 27" style="enable-background:new 0 0 250.2 27;" xml:space="preserve">
<style type="text/css">
	.st0{fill:#333F48;}
	.st1{fill:#EA7600;}
</style>
<g id="XMLID_1_">
	<path class="st0" d="M88.2,0.9h5.1l-9.4,25.3h-2.6l-5.5-17l-5.5,17h-2.6L58.2,0.9h5.1l5.7,16.4l5.3-16.4h3.1l5.3,16.4L88.2,0.9z
		 M119,0.9v25.3h-4.3v-3.9c-0.8,1.2-1.7,2.1-2.7,2.8c-2,1.2-4.2,1.8-6.8,1.8c-3.7,0-6.8-1.3-9.2-3.8c-2.5-2.5-3.7-5.7-3.7-9.4
		c0-3.8,1.3-7,3.8-9.6c2.5-2.5,5.7-3.8,9.4-3.8c1.9,0,3.7,0.4,5.4,1.2c1.7,0.8,3,1.9,3.8,3.1V0.9H119z M105.6,22.5
		c2.4,0,4.4-0.9,6.1-2.6c1.7-1.7,2.6-3.8,2.6-6.3c0-2.5-0.8-4.7-2.5-6.4c-1.7-1.8-3.7-2.6-6.2-2.6c-2.4,0-4.4,0.9-6.1,2.6
		c-1.7,1.7-2.5,3.9-2.5,6.4c0,2.5,0.9,4.6,2.6,6.3C101.2,21.6,103.3,22.5,105.6,22.5 M144.4,10.7v15.5h-4.7V12.5
		c0-2.4-0.4-4.2-1.1-5.3c-1.1-1.7-2.8-2.6-5.3-2.6c-2.1,0-3.7,0.7-4.8,2.1c-1.2,1.4-1.7,3.3-1.7,5.8v13.7H122V0.9h4.4v2.7
		c1.7-2.2,4.2-3.3,7.5-3.3c3.1,0,5.7,1,7.6,2.9C143.5,5.1,144.4,7.6,144.4,10.7 M147.9,0.9h8.4c7.9,0,13.4,5.5,13.4,12.6v0.1
		c0,7.1-5.5,12.6-13.4,12.6h-8.4V0.9z M156.3,24.5c7,0,11.5-4.8,11.5-10.8v-0.1c0-6-4.4-10.9-11.5-10.9h-6.5v21.8H156.3z M172.8,0.9
		h1.9v25.3h-1.9V0.9z M178.7,22.5l1.2-1.4c2.8,2.6,5.4,3.8,9.1,3.8c3.8,0,6.4-2.1,6.4-5v-0.1c0-2.7-1.4-4.2-7.2-5.4
		c-6.1-1.2-8.5-3.3-8.5-7.1V7.2c0-3.8,3.4-6.6,8.1-6.6c3.7,0,6.1,1,8.7,3.1l-1.2,1.5c-2.4-2.1-4.8-2.9-7.6-2.9
		c-3.7,0-6.2,2.1-6.2,4.8v0.1c0,2.7,1.4,4.3,7.4,5.5c5.9,1.2,8.3,3.3,8.3,7v0.1c0,4.1-3.5,6.9-8.4,6.9
		C184.8,26.6,181.7,25.2,178.7,22.5 M200.1,13.6L200.1,13.6c0-7.2,5.3-13.2,12.6-13.2c4.5,0,7.2,1.7,9.8,4.1l-1.3,1.4
		c-2.2-2.1-4.7-3.7-8.5-3.7c-6.1,0-10.7,5-10.7,11.3v0.1c0,6.4,4.7,11.4,10.7,11.4c3.6,0,6.1-1.4,8.7-3.9l1.3,1.2
		c-2.7,2.6-5.6,4.4-10.1,4.4C205.5,26.6,200.1,20.9,200.1,13.6 M224.6,13.6L224.6,13.6c0-7,5.1-13.2,12.8-13.2
		c7.7,0,12.7,6.1,12.7,13c0,0,0,0,0,0.1c0,6.9-5.1,13.1-12.8,13.1C229.7,26.6,224.6,20.5,224.6,13.6 M248.1,13.6L248.1,13.6
		c0-6.3-4.6-11.5-10.8-11.5c-6.3,0-10.7,5.1-10.7,11.3v0.1c0,6.3,4.6,11.4,10.8,11.4C243.6,24.9,248.1,19.9,248.1,13.6"/>
	
		<rect x="18.1" y="4.1" transform="matrix(0.7071 0.7071 -0.7071 0.7071 17.6184 -15.5345)" class="st1" width="18.9" height="18.9"/>
	<polygon class="st1" points="40.9,0.1 36.4,4.7 43,11.4 45.2,13.5 43,15.6 36.4,22.3 40.9,26.9 54.3,13.5 	"/>
	<rect x="4" y="4.1" transform="matrix(0.7071 0.7071 -0.7071 0.7071 13.4879 -5.5608)" class="st1" width="18.9" height="18.9"/>
</g>
</svg>
