<svg version="1.1" id="Layer_1" xmlns="http://www.w3.org/2000/svg" x="0" y="0" viewBox="0 0 64.2 62.2" xml:space="preserve"><style>.st0{fill:#b1a499}.st1{fill:#ff6a00}</style><g id="XMLID_1_"><path id="XMLID_20_" class="st0" d="M59.4 62.1H4.6L.1 57.9v-3.8h25.3l2 2h9.2l2-2h25.5v3.8l-4.7 4.2zm-54-2h53.2l3.5-3.1v-.9H39.4l-2 2H26.6l-2-2H2.1v.9l3.3 3.1z"/><path id="XMLID_19_" class="st1" d="M27.1 50.1h2v2h-2z"/><path id="XMLID_18_" class="st0" d="M23.1 50.1h2v2h-2z"/><path id="XMLID_17_" class="st1" d="M31.1 50.1h2v2h-2z"/><path id="XMLID_16_" class="st0" d="M35.1 50.1h2v2h-2z"/><path id="XMLID_15_" class="st1" d="M39.1 50.1h2v2h-2z"/><path id="XMLID_14_" class="st1" d="M33.1 48.1h-2v-36h23v2h-21z"/><path id="XMLID_13_" class="st1" d="M29.1 4.1h-2v-4h23v2h-21z"/><path id="XMLID_12_" class="st1" d="M27.1 10.1h2v38h-2z"/><path id="XMLID_11_" class="st1" d="M41.1 48.1h-2v-16h6v2h-4z"/><path id="XMLID_10_" class="st0" d="M37.1 10.1h-2v-2h-21v-2h23z"/><path id="XMLID_9_" class="st0" d="M35.1 16.1h2v32h-2z"/><path id="XMLID_8_" class="st0" d="M25.1 48.1h-2v-18h-11v-2h13z"/><path id="XMLID_7_" class="st0" d="M6.1 6.1h2v2h-2z"/><path id="XMLID_6_" class="st0" d="M10.1 6.1h2v2h-2z"/><path id="XMLID_5_" class="st1" d="M52.1.1h2v2h-2z"/><path id="XMLID_4_" class="st1" d="M56.1.1h2v2h-2z"/><path id="XMLID_3_" class="st0" d="M21.1 52.1h-15V24.4c0-2.1 1.6-4.3 3.9-4.3h15.1v2H10c-1.1 0-1.9 1.2-1.9 2.3v25.7h13v2z"/><path id="XMLID_2_" class="st0" d="M58.1 52.1h-15v-2h13V24.4c0-1.2-1.1-2.3-2.1-2.3H39.1v-2H54c2.2 0 4.1 2.1 4.1 4.3v27.7z"/></g></svg>