<svg version="1.1" id="Layer_1" xmlns="http://www.w3.org/2000/svg" x="0" y="0" viewBox="0 0 250.2 27" xml:space="preserve"><style>.st1{fill:#ea7600}</style><g id="XMLID_1_"><path d="M88.2.9h5.1l-9.4 25.3h-2.6l-5.5-17-5.5 17h-2.6L58.2.9h5.1L69 17.3 74.3.9h3.1l5.3 16.4L88.2.9zm30.8 0v25.3h-4.3v-3.9c-.8 1.2-1.7 2.1-2.7 2.8-2 1.2-4.2 1.8-6.8 1.8-3.7 0-6.8-1.3-9.2-3.8-2.5-2.5-3.7-5.7-3.7-9.4 0-3.8 1.3-7 3.8-9.6 2.5-2.5 5.7-3.8 9.4-3.8 1.9 0 3.7.4 5.4 1.2 1.7.8 3 1.9 3.8 3.1V.9h4.3zm-13.4 21.6c2.4 0 4.4-.9 6.1-2.6 1.7-1.7 2.6-3.8 2.6-6.3s-.8-4.7-2.5-6.4c-1.7-1.8-3.7-2.6-6.2-2.6-2.4 0-4.4.9-6.1 2.6-1.7 1.7-2.5 3.9-2.5 6.4 0 2.5.9 4.6 2.6 6.3 1.6 1.7 3.7 2.6 6 2.6m38.8-11.8v15.5h-4.7V12.5c0-2.4-.4-4.2-1.1-5.3-1.1-1.7-2.8-2.6-5.3-2.6-2.1 0-3.7.7-4.8 2.1-1.2 1.4-1.7 3.3-1.7 5.8v13.7H122V.9h4.4v2.7c1.7-2.2 4.2-3.3 7.5-3.3 3.1 0 5.7 1 7.6 2.9 2 1.9 2.9 4.4 2.9 7.5m3.5-9.8h8.4c7.9 0 13.4 5.5 13.4 12.6v.1c0 7.1-5.5 12.6-13.4 12.6h-8.4V.9zm8.4 23.6c7 0 11.5-4.8 11.5-10.8v-.1c0-6-4.4-10.9-11.5-10.9h-6.5v21.8h6.5zM172.8.9h1.9v25.3h-1.9V.9zm5.9 21.6l1.2-1.4c2.8 2.6 5.4 3.8 9.1 3.8 3.8 0 6.4-2.1 6.4-5v-.1c0-2.7-1.4-4.2-7.2-5.4-6.1-1.2-8.5-3.3-8.5-7.1v-.1c0-3.8 3.4-6.6 8.1-6.6 3.7 0 6.1 1 8.7 3.1l-1.2 1.5c-2.4-2.1-4.8-2.9-7.6-2.9-3.7 0-6.2 2.1-6.2 4.8v.1c0 2.7 1.4 4.3 7.4 5.5 5.9 1.2 8.3 3.3 8.3 7v.1c0 4.1-3.5 6.9-8.4 6.9-4-.1-7.1-1.5-10.1-4.2m21.4-8.9c0-7.2 5.3-13.2 12.6-13.2 4.5 0 7.2 1.7 9.8 4.1l-1.3 1.4c-2.2-2.1-4.7-3.7-8.5-3.7-6.1 0-10.7 5-10.7 11.3v.1c0 6.4 4.7 11.4 10.7 11.4 3.6 0 6.1-1.4 8.7-3.9l1.3 1.2c-2.7 2.6-5.6 4.4-10.1 4.4-7.1-.1-12.5-5.8-12.5-13.1m24.5 0c0-7 5.1-13.2 12.8-13.2 7.7 0 12.7 6.1 12.7 13v.1c0 6.9-5.1 13.1-12.8 13.1-7.6 0-12.7-6.1-12.7-13m23.5 0c0-6.3-4.6-11.5-10.8-11.5-6.3 0-10.7 5.1-10.7 11.3v.1c0 6.3 4.6 11.4 10.8 11.4 6.2 0 10.7-5 10.7-11.3" fill="#333f48"/><path transform="rotate(45.001 27.561 13.5)" class="st1" d="M18.1 4.1H37V23H18.1z"/><path class="st1" d="M40.9.1l-4.5 4.6 6.6 6.7 2.2 2.1-2.2 2.1-6.6 6.7 4.5 4.6 13.4-13.4z"/><path transform="rotate(45.001 13.457 13.5)" class="st1" d="M4 4.1h18.9V23H4z"/></g></svg>